<svg width="117" height="121" viewBox="0 0 117 121" fill="none" xmlns="http://www.w3.org/2000/svg">
<path d="M32.6327 2.19807C33.9028 0.767755 35.7788 0.0287812 37.6832 0.208621L84.0171 4.58414C85.8148 4.75391 87.4405 5.7243 88.4431 7.22612L115.608 47.9163C116.58 49.3718 116.868 51.1791 116.396 52.8644L103.497 98.9659C102.991 100.775 101.666 102.243 99.9178 102.932L57.1742 119.769C55.426 120.457 53.4562 120.287 51.852 119.309L10.9769 94.3901C9.48265 93.4792 8.46057 91.9611 8.17858 90.2339L0.295163 41.9485C0.00419809 40.1664 0.531336 38.348 1.73034 36.9978L32.6327 2.19807Z" fill="#F2E8CF"/>
</svg>
